{
  "title": "3 Days to Kill 2014 New Source HDCAM x264 AC3 TiTAN",
  "uid": 9670468,
  "size": 749274608,
  "categoryP": "video",
  "categoryS": "movies",
  "magnet": "?xt=urn:btih:842e80af12091b8bd8b728c1df19ce30a0e9c9b1&amp;dn=3+Days+to+Kill+2014+New+Source+HDCAM+x264+AC3+TiTAN&amp;tr=udp%3A%2F%2Ftracker.openbittorrent.com%3A80&amp;tr=udp%3A%2F%2Fopen.demonii.com%3A1337&amp;tr=udp%3A%2F%2Ftracker.coppersurfer.tk%3A6969&amp;tr=udp%3A%2F%2Fexodus.desync.com%3A6969",
  "seeders": 63,
  "leechers": 0,
  "uploader": "xxxlavalxxx",
  "files": -1,
  "time": 1393450673,
  "description": " &lt;a href=&quot;\nhttp://www.imdb.com/title/tt2172934/&quot; rel=&quot;nofollow&quot; target=&quot;_NEW&quot;&gt;\nhttp://www.imdb.com/title/tt2172934/&lt;/a&gt;\n\n\nA dying Secret Service Agent trying to reconnect with his estranged daughter is offered an experimental drug that could save his life in exchange for one last assignment.\n\nDirector: McG\nWriters: Adi Hasak (screenplay), Luc Besson (screenplay)\nStars: Kevin Costner, Hailee Steinfeld, Connie Nielsen \nGenres: Action | Crime | Drama | Thriller\nCountry: USA\nLanguage: English\n\n\nSource Matine (THX)\n\nGeneral\n\nFormat                                   : Matroska\nFormat version                           : Version 2\nFile size                                : 715 MiB\nDuration                                 : 1h 50mn\nOverall bit rate                         : 901 Kbps\nEncoded date                             : UTC 2014-02-27 18:55:30\nWriting application                      : mkvmerge v6.7.0 ('Back to the Ground') 32bit built on Jan  8 2014 15:03:17\nWriting library                          : libebml v1.3.0 + libmatroska v1.4.1\n\nVideo\nID                                       : 1\nFormat                                   : AVC\nFormat/Info                              : Advanced Video Codec\nFormat profile                           : &lt;a class=&quot;__cf_email__&quot; href=&quot;/cdn-cgi/l/email-protection&quot; data-cfemail=&quot;b8f0d1dfd0f8f48b9688&quot;&gt;[email&amp;#160;protected]&lt;/a&gt;&lt;script cf-hash='f9e31' type=&quot;text/javascript&quot;&gt;\n/* &lt;![CDATA[ */!function(){try{var t=&quot;currentScript&quot;in document?document.currentScript:function(){for(var t=document.getElementsByTagName(&quot;script&quot;),e=t.length;e--;)if(t[e].getAttribute(&quot;cf-hash&quot;))return t[e]}();if(t&amp;&amp;t.previousSibling){var e,r,n,i,c=t.previousSibling,a=c.getAttribute(&quot;data-cfemail&quot;);if(a){for(e=&quot;&quot;,r=parseInt(a.substr(0,2),16),n=2;a.length-n;n+=2)i=parseInt(a.substr(n,2),16)^r,e+=String.fromCharCode(i);e=document.createTextNode(e),c.parentNode.replaceChild(e,c)}}}catch(u){}}();/* ]]&gt; */&lt;/script&gt;\nFormat settings, CABAC                   : Yes\nFormat settings, ReFrames                : 4 frames\nCodec ID                                 : V_MPEG4/ISO/AVC\nDuration                                 : 1h 50mn\nBit rate                                 : 659 Kbps\nWidth                                    : 720 pixels\nHeight                                   : 304 pixels\nDisplay aspect ratio                     : 2.35:1\nFrame rate mode                          : Constant\nFrame rate                               : 25.000 fps\nColor space                              : YUV\nChroma subsampling                       : 4:2:0\nBit depth                                : 8 bits\nScan type                                : Progressive\nBits/(Pixel*Frame)                       : 0.121\nStream size                              : 523 MiB (73%)\nWriting library                          : x264 core 140 r2377 1ca7bb9\nDefault                                  : Yes\nForced                                   : No\n\nAudio\nID                                       : 2\nFormat                                   : AC-3\nFormat/Info                              : Audio Coding 3\nMode extension                           : CM (complete main)\nFormat settings, Endianness              : Big\nCodec ID                                 : A_AC3\nDuration                                 : 1h 50mn\nBit rate mode                            : Constant\nBit rate                                 : 224 Kbps\nChannel(s)                               : 2 channels\nChannel positions                        : Front: L R\nSampling rate                            : 48.0 KHz\nBit depth                                : 16 bits\nCompression mode                         : Lossy\nStream size                              : 178 MiB (25%)\nDefault                                  : Yes\nForced                                   : No\n\n\nscreens\n &lt;a href=&quot;\nhttp://i.imgur.com/muSfbs9.jpg&quot; rel=&quot;nofollow&quot; target=&quot;_NEW&quot;&gt;\nhttp://i.imgur.com/muSfbs9.jpg&lt;/a&gt; &lt;a href=&quot;\nhttp://i.imgur.com/8tD08ad.jpg&quot; rel=&quot;nofollow&quot; target=&quot;_NEW&quot;&gt;\nhttp://i.imgur.com/8tD08ad.jpg&lt;/a&gt; &lt;a href=&quot;\nhttp://i.imgur.com/BvgqdrL.jpg&quot; rel=&quot;nofollow&quot; target=&quot;_NEW&quot;&gt;\nhttp://i.imgur.com/BvgqdrL.jpg&lt;/a&gt; &lt;a href=&quot;\nhttp://i.imgur.com/Yve5K6k.jpg&quot; rel=&quot;nofollow&quot; target=&quot;_NEW&quot;&gt;\nhttp://i.imgur.com/Yve5K6k.jpg&lt;/a&gt;\n",
  "parsed": {
    "xt": "urn:btih:842e80af12091b8bd8b728c1df19ce30a0e9c9b1",
    "dn": "3 Days to Kill 2014 New Source HDCAM x264 AC3 TiTAN",
    "tr": [
      "udp://exodus.desync.com:6969",
      "udp://open.demonii.com:1337",
      "udp://tracker.coppersurfer.tk:6969",
      "udp://tracker.openbittorrent.com:80"
    ],
    "infoHash": "842e80af12091b8bd8b728c1df19ce30a0e9c9b1",
    "infoHashBuffer": {
      "type": "Buffer",
      "data": [
        132,
        46,
        128,
        175,
        18,
        9,
        27,
        139,
        216,
        183,
        40,
        193,
        223,
        25,
        206,
        48,
        160,
        233,
        201,
        177
      ]
    },
    "name": "3 Days to Kill 2014 New Source HDCAM x264 AC3 TiTAN",
    "announce": [
      "udp://exodus.desync.com:6969",
      "udp://open.demonii.com:1337",
      "udp://tracker.coppersurfer.tk:6969",
      "udp://tracker.openbittorrent.com:80"
    ],
    "urlList": []
  },
  "previous": 23,
  "peers": 13,
  "last_updated": "2016-12-27T05:38:42.781Z"
}